<svg xmlns="http://www.w3.org/2000/svg" style="display:none">
  <symbol id="icon-network" viewBox="0 0 24 24" fill="none">
    <circle cx="6" cy="7" r="2.4" stroke="currentColor" stroke-width="1.8" />
    <circle cx="18" cy="7" r="2.4" stroke="currentColor" stroke-width="1.8" />
    <circle cx="12" cy="17" r="2.8" stroke="currentColor" stroke-width="1.8" />
    <path d="M7.9 8.7L10.3 14" stroke="currentColor" stroke-width="1.8" stroke-linecap="round" />
    <path d="M16.1 8.7L13.7 14" stroke="currentColor" stroke-width="1.8" stroke-linecap="round" />
  </symbol>

  <symbol id="icon-docs" viewBox="0 0 24 24" fill="none">
    <path d="M7 3.5h7l3 3V20a1 1 0 0 1-1 1H7.8A1.8 1.8 0 0 1 6 19.2V5.3A1.8 1.8 0 0 1 7.8 3.5Z" stroke="currentColor" stroke-width="1.8" />
    <path d="M14 3.5V7h3" stroke="currentColor" stroke-width="1.8" stroke-linecap="round" />
    <path d="M9 11h6M9 14h6M9 17h4" stroke="currentColor" stroke-width="1.8" stroke-linecap="round" />
  </symbol>

  <symbol id="icon-viz" viewBox="0 0 24 24" fill="none">
    <path d="M4 17.5 8.2 12l3.7 3.2L17 8l3 2.2" stroke="currentColor" stroke-width="1.8" stroke-linecap="round" stroke-linejoin="round" />
    <path d="M3.5 20.5h17" stroke="currentColor" stroke-width="1.8" stroke-linecap="round" />
    <circle cx="8.2" cy="12" r="1.5" fill="currentColor" />
    <circle cx="12" cy="15.2" r="1.5" fill="currentColor" />
    <circle cx="17" cy="8" r="1.5" fill="currentColor" />
  </symbol>

  <symbol id="icon-arch" viewBox="0 0 24 24" fill="none">
    <rect x="3.5" y="4" width="7" height="6" rx="1.4" stroke="currentColor" stroke-width="1.8" />
    <rect x="13.5" y="4" width="7" height="6" rx="1.4" stroke="currentColor" stroke-width="1.8" />
    <rect x="8.5" y="14" width="7" height="6" rx="1.4" stroke="currentColor" stroke-width="1.8" />
    <path d="M10.5 7h3M12 10v4" stroke="currentColor" stroke-width="1.8" stroke-linecap="round" />
  </symbol>

  <symbol id="icon-user" viewBox="0 0 24 24" fill="none">
    <circle cx="12" cy="8.2" r="3.3" stroke="currentColor" stroke-width="1.8" />
    <path d="M5.2 19.5c1.2-2.8 3.8-4.3 6.8-4.3s5.6 1.5 6.8 4.3" stroke="currentColor" stroke-width="1.8" stroke-linecap="round" />
  </symbol>

  <symbol id="icon-gear" viewBox="0 0 24 24" fill="none">
    <path d="M12 5.2 13.6 4l2.1 1 0.3 2.1c0.5 0.2 0.9 0.4 1.3 0.7l2-0.8 1.5 1.8-1 1.9c0.2 0.5 0.3 1 0.4 1.5l1.8 1.2-0.4 2.3-2.1 0.4c-0.2 0.5-0.5 0.9-0.8 1.3l0.8 2-1.8 1.5-1.9-1c-0.5 0.2-1 0.3-1.5 0.4L13.6 20h-2.3l-0.4-2.1c-0.5-0.1-1-0.2-1.5-0.4l-1.9 1-1.8-1.5 0.8-2c-0.3-0.4-0.6-0.8-0.8-1.3l-2.1-0.4L3.2 11l1.8-1.2c0.1-0.5 0.2-1 0.4-1.5l-1-1.9L5.9 4.6l2 0.8c0.4-0.3 0.8-0.5 1.3-0.7L9.5 2.6l2.1-1L12 2.8" stroke="currentColor" stroke-width="1.4" stroke-linecap="round" stroke-linejoin="round" />
    <circle cx="12" cy="12" r="2.8" stroke="currentColor" stroke-width="1.8" />
  </symbol>
</svg>
